<svg viewBox="0 0 90.7 90.7">
<path class="st0" d="M68.2,87.9H19.8c-5.7,0-10.4-4.4-10.4-9.8V45.4c0-5.4,4.9-10.6,10.6-10.6h47.8c5.7,0,10.6,5.2,10.6,10.6l0,31.9
	C78.5,82.7,73.9,87.9,68.2,87.9z M61.2,51.7c-1.8-1.7-4.7-1.7-6.4,0L39.3,66.3l-6.1-8.5c-1.8-1.7-4.7-1.7-6.4,0
	c-1.8,1.7-1.8,4.4,0,6l8.7,12.1c1.8,1.7,4.7,1.7,6.4,0l19.3-18.1C62.9,56.1,62.9,53.4,61.2,51.7z M57.3,29.4c0-6-1.3-13.8-13.3-13.8
	c-12.5,0-13.3,9-13.3,13.8l0,0H20.1l0,0c0-15.7,9.2-26.6,23.9-26.6c14.7,0,23.9,10.8,23.9,26.6l0,0H57.3L57.3,29.4z"/>
</svg>
