<svg viewBox="0 0 90.7 90.7">
<path class="st0" d="M69.5,87H21.2c-5.7,0-10.4-4.4-10.4-9.8V44.5c0-5.4,4.9-10.6,10.6-10.6h47.8c5.7,0,10.6,5.2,10.6,10.6l0,32.7
	C79.9,82.6,75.2,87,69.5,87z M58.6,54.2c0-2.5-2-4.4-4.4-4.4c-2.4,0-4.4,2-4.4,4.4v7.3l-9.6-9.7c-0.8-1.2-2.1-2.1-3.7-2.1
	c0,0-0.1,0-0.1,0c-1.1,0-2.2,0.4-3,1.2c-0.8,0.8-1.2,2-1.2,3.1c0,0,0,0.1,0,0.1V72c0,2.5,2,4.4,4.4,4.4c2.4,0,4.4-2,4.4-4.4v-7.3
	l9.6,9.7c0.8,1.2,2.1,2.1,3.7,2.1c0,0,0.1,0,0.1,0c1.1,0,2.2-0.4,3-1.2c0.8-0.8,1.2-2,1.2-3.1c0,0,0-0.1,0-0.1V54.2z M58.6,28.6
	c0-6-1.3-13.8-13.3-13.8c-12.5,0-13.3,9-13.3,13.8l0,0H21.4l0,0C21.4,12.8,30.7,2,45.4,2C60,2,69.3,12.8,69.3,28.6l0,0H58.6
	L58.6,28.6z"/>
</svg>
