<svg viewBox="0 0 90.7 90.7">
<path class="st0" d="M83.1,28.2c0,5.4,0,10.9,0,16.3c0,2-0.3,3.9-0.6,5.8c-0.5,2.9-1.3,5.7-2.4,8.4c-1.2,3-2.8,5.8-4.7,8.4
	c-1.7,2.4-3.6,4.6-5.7,6.5c-1.6,1.5-3.3,2.9-5.1,4.2c-3.3,2.5-7,4.2-10.7,6.1c-1.3,0.7-2.7,1.4-4.1,2c-1.2,0.6-2.4,1.2-3.7,1.7
	c-0.7,0.3-1.5,0.2-2.2-0.1c-1.8-0.9-3.5-1.8-5.3-2.6c-2.3-1.2-4.7-2.2-7-3.5c-2.6-1.3-5-2.9-7.3-4.7c-1.3-1.1-2.5-2.2-3.7-3.3
	c-2.3-2.1-4.2-4.5-6-7c-1.5-2.1-2.7-4.4-3.8-6.7c-1.3-2.8-2.2-5.8-2.8-8.8c-0.4-2-0.7-4-0.6-6c0-1.2-0.1-2.4-0.1-3.7c0-10,0-20,0-30
	c0-1.5,0.7-2.5,2.1-2.9c2.6-0.8,5.3-1.7,8-2.4c2.5-0.6,5-1,7.6-1.5c1.7-0.3,3.4-0.5,5.1-0.7c1.4-0.2,2.7-0.3,4.1-0.4
	C36,3.2,37.7,3.1,39.3,3C40.4,3,41.5,3,42.6,2.9c1.4,0,2.9-0.1,4.3-0.1c1.3,0,2.6,0,4,0.1C52,3,53.2,3,54.4,3.1
	c1.7,0.1,3.4,0.3,5.1,0.5C61.2,3.9,63,4,64.7,4.3c2.1,0.3,4.2,0.8,6.3,1.2c2.2,0.5,4.4,1.1,6.6,1.7c1.3,0.3,2.5,0.8,3.8,1.2
	c1.1,0.4,1.8,1.4,1.8,2.6C83.1,16.7,83.1,22.5,83.1,28.2z M67.6,27.7c-1.8-1.7-4.6-1.7-6.4,0L43.7,44.4l-9.6-9.2
	c-1.8-1.7-4.6-1.7-6.4,0c-1.8,1.7-1.8,4.4,0,6.1l12.7,12.2c1.8,1.7,4.6,1.7,6.4,0l20.7-19.7C69.4,32.1,69.4,29.4,67.6,27.7z"/>
</svg>
